<svg viewBox="0 0 40.7 12" xmlns="http://www.w3.org/2000/svg" style="fill: currentColor;">
  <g id="e" transform="matrix(0.9999999999999999, 0, 0, 0.9999999999999999, -8.881784197001252e-16, 0)">
    <g id="g4546">
      <path d="M34.7,12c-3.3,0-6-2.7-6-6s2.7-6,6-6s6,2.7,6,6c0,0.6-0.4,1-0.9,1c0,0,0,0-0.1,0H31c0,0.1,0.1,0.3,0.2,0.4&#10;&#9;&#9;&#9;c0.6,1.4,2,2.4,3.6,2.4c0.6,0,1,0.5,1,1S35.2,11.9,34.7,12L34.7,12z M30.9,5h7.5c-0.6-2.1-2.7-3.3-4.8-2.7&#10;&#9;&#9;&#9;C32.3,2.6,31.3,3.7,30.9,5z"/>
    </g>
  </g>
  <g id="x" transform="matrix(0.9999999999999999, 0, 0, 0.9999999999999999, -8.881784197001252e-16, 0)">
    <g id="g2988">
      <path d="M15.4,12c-0.3,0-0.5-0.1-0.7-0.3c-0.4-0.4-0.4-1-0.1-1.4c0,0,0,0,0.1-0.1l9.8-9.8C24.9,0,25.6,0,26,0.4s0.4,1.1,0,1.5&#10;&#9;&#9;&#9;l-9.8,9.8C16,11.8,15.7,12,15.4,12z"/>
      <path d="M25.2,12c-0.3,0-0.5-0.1-0.7-0.3l-9.8-9.9c-0.4-0.4-0.4-1.1,0-1.5s1.1-0.4,1.5,0l9.9,9.8c0.4,0.4,0.4,1,0.1,1.4&#10;&#9;&#9;&#9;c0,0,0,0-0.1,0.1C25.8,11.8,25.5,12,25.2,12z"/>
    </g>
  </g>
  <g id="a" transform="matrix(0.9999999999999999, 0, 0, 0.9999999999999999, -8.881784197001252e-16, 0)">
    <g id="g4539">
      <g id="g2591">
        <path d="M6,12c-3.3,0-6-2.7-6-6s2.7-6,6-6s6,2.7,6,6S9.3,12,6,12z M6,2.1c-2.1,0-3.9,1.7-3.9,3.8s1.7,3.9,3.8,3.9S9.8,8.1,9.8,6&#10;&#9;&#9;&#9;&#9;l0,0C9.8,3.8,8.1,2.1,6,2.1z"/>
      </g>
      <path d="M10.9,12c-0.6,0-1-0.4-1-1V1.1c0-0.6,0.5-1,1-1s1,0.5,1,1v9.8c0.1,0.5-0.3,1-0.9,1.1C11,12,10.9,12,10.9,12z"/>
    </g>
  </g>
</svg>